<?xml version="1.0" encoding="utf-8"?>
<!-- Generator: Adobe Illustrator 22.0.0, SVG Export Plug-In . SVG Version: 6.00 Build 0)  -->
<svg version="1.1" id="Capa_1" xmlns="http://www.w3.org/2000/svg" xmlns:xlink="http://www.w3.org/1999/xlink" x="0px" y="0px"
	 viewBox="0 0 512 512" style="enable-background:new 0 0 512 512;" xml:space="preserve">
<style type="text/css">
	.st0{fill:#E3038C;}
</style>
<g>
	<g>
		<path d="M414,303.6c-32.5,0-58.9,26.4-58.9,58.9s26.4,58.9,58.9,58.9s58.9-26.4,58.9-58.9C472.9,330.1,446.5,303.6,414,303.6z
			 M414,388.4c-14.3,0-25.9-11.6-25.9-25.9s11.6-25.9,25.9-25.9s25.9,11.6,25.9,25.9S428.3,388.4,414,388.4z"/>
	</g>
</g>
<g>
	<g>
		<path d="M329.2,90.6H16.5C7.4,90.6,0,98,0,107.1v254.3c0,9.1,7.4,16.5,16.5,16.5h51.8v-33H33V123.6h279.7v237.8h33V107.1
			C345.7,98,338.3,90.6,329.2,90.6z"/>
	</g>
</g>
<g>
	<g>
		<rect x="149.2" y="344.9" width="222.4" height="33"/>
	</g>
</g>
<g>
	<g>
		<path d="M108.5,303.6c-32.5,0-58.9,26.4-58.9,58.9s26.4,58.9,58.9,58.9s58.9-26.4,58.9-58.9C167.4,330.1,140.9,303.6,108.5,303.6z
			 M108.5,388.4c-14.3,0-25.9-11.6-25.9-25.9s11.6-25.9,25.9-25.9s25.9,11.6,25.9,25.9S122.7,388.4,108.5,388.4z"/>
	</g>
</g>
<g>
	<g>
		<path d="M495.5,227.6H329.2v33H479v84.2h-23.7v33h40.2c9.1,0,16.5-7.4,16.5-16.5V244.2C512,235,504.6,227.6,495.5,227.6z"/>
	</g>
</g>
<g>
	<g>
		<path d="M445.5,159.1c-2.9-5.3-8.5-8.6-14.5-8.6H329.2v33h92.1L459,252l28.9-15.9L445.5,159.1z"/>
	</g>
</g>
<path class="st0" d="M137.5,283.9H93.8c-1.1,0-2-0.9-2-2v-40.6c0-1.1,0.9-2,2-2h43.7c1.1,0,2,0.9,2,2v40.6
	C139.5,283,138.6,283.9,137.5,283.9z"/>
<path class="st0" d="M241,239.2h-99.4c-1.1,0-2-0.9-2-2v-79.7c0-1.1,0.9-2,2-2H241c1.1,0,2,0.9,2,2v79.7
	C243,238.3,242.1,239.2,241,239.2z"/>
</svg>
