<?xml version="1.0" encoding="utf-8"?>
<!-- Generator: Adobe Illustrator 22.0.0, SVG Export Plug-In . SVG Version: 6.00 Build 0)  -->
<svg version="1.1" id="Capa_1" xmlns="http://www.w3.org/2000/svg" xmlns:xlink="http://www.w3.org/1999/xlink" x="0px" y="0px"
	 viewBox="0 0 512 512" style="enable-background:new 0 0 512 512;" xml:space="preserve">
<style type="text/css">
	.st0{fill:#00B4FF;}
</style>
<g>
	<g>
		<g>
			<polygon class="st0" points="242,285.9 177.2,224.3 149.6,253.2 244.2,343.3 388.4,182.8 358.6,156.1 			"/>
			<path d="M428,65.2C379.5,56.5,334.8,30,312.5,15c-14.6-9.8-31.5-15-49-15s-34.4,5.2-49,15c-22.3,15-67,41.5-115.5,50.2
				c-28.7,5.1-49.6,30-49.6,59.1V245c0,39.9,11.2,78.7,33.2,115.5c17.2,28.8,41.1,56.3,70.9,81.8c50.1,42.8,99.8,65.2,101.9,66.1
				l8.1,3.6l8.1-3.6c2.1-0.9,51.7-23.3,101.9-66.1c29.8-25.5,53.7-53,70.9-81.8c22-36.8,33.2-75.7,33.2-115.5V124.3
				C477.5,95.2,456.7,70.3,428,65.2z M437.5,245c0,59.5-30,115.4-89.3,166.2c-34.4,29.6-69.4,48.8-84.8,56.6
				c-35.4-18-174.1-96.5-174.1-222.9V124.3c0-9.7,7-18,16.6-19.7c55.7-10,105.8-39.6,130.8-56.4c7.9-5.3,17.2-8.2,26.7-8.2
				c9.5,0,18.7,2.8,26.7,8.2c24.9,16.8,75,46.4,130.8,56.4c9.6,1.7,16.6,10,16.6,19.7L437.5,245L437.5,245z"/>
		</g>
	</g>
</g>
</svg>
