<?xml version="1.0" encoding="utf-8"?>
<!-- Generator: Adobe Illustrator 22.0.0, SVG Export Plug-In . SVG Version: 6.00 Build 0)  -->
<svg version="1.1" id="Capa_1" xmlns="http://www.w3.org/2000/svg" xmlns:xlink="http://www.w3.org/1999/xlink" x="0px" y="0px"
	 viewBox="0 0 512 512" style="enable-background:new 0 0 512 512;" xml:space="preserve">
<style type="text/css">
	.st0{stroke:#FFFFFF;stroke-width:2;stroke-miterlimit:10;}
	.st1{fill:#E3038C;stroke:#E3038C;stroke-width:2;stroke-miterlimit:10;}
</style>
<g>
	<path class="st0" d="M256,2C115.9,2,2,115.9,2,256c0,140,113.9,254,254,254c140.1,0,254-114,254-254C510,115.9,396.1,2,256,2z
		 M256,482.5c-62.2,0-118.7-25.2-159.7-66c-16.4-16.3-30.3-35-41.1-55.7c-8-15.2-14.3-31.3-18.7-48.3h0.7
		c-4.7-18.1-7.2-37.1-7.2-56.6c0-29.1,5.5-56.9,15.5-82.4H45C78,89.3,160.1,29.5,256,29.5c59.3,0,113.3,22.9,153.7,60.3
		c21,19.4,38.3,42.6,50.7,68.6c2.4,5,4.6,10.1,6.6,15.3h-0.7c10,25.5,15.5,53.3,15.5,82.4c0,19.6-2.5,38.5-7.2,56.6h0.7
		C450.2,410.2,361.4,482.5,256,482.5z"/>
	
		<rect x="157.3" y="87.7" transform="matrix(0.2473 -0.9689 0.9689 0.2473 -2.3891 267.5963)" class="st0" width="27.5" height="95.2"/>
	
		<rect x="293.4" y="121.6" transform="matrix(0.9689 -0.2473 0.2473 0.9689 -22.8792 88.5268)" class="st0" width="95.2" height="27.5"/>
	<path class="st1" d="M345.5,354.7c22.1-3.1,44.7,1.9,63.6,13.9l14.7-23.2c-24.4-15.5-53.6-21.9-82.1-17.9
		c-45.9,6.4-84.8,38.9-99.3,82.9l26.1,8.6C279.8,384.9,310,359.6,345.5,354.7z"/>
</g>
<path d="M479.5,173.6H32.5C21.8,199.1,16,226.9,16,256c0,19.6,2.6,38.5,7.6,56.6h464.8c5-18.1,7.6-37.1,7.6-56.6
	C496,226.9,490.2,199.1,479.5,173.6z M165.7,270.6c-16.1,0-29.2-12.3-29.2-27.5c0-15.2,13.1-27.5,29.2-27.5
	c16.1,0,29.2,12.3,29.2,27.5C194.9,258.3,181.8,270.6,165.7,270.6z M346.3,270.6c-16.1,0-29.2-12.3-29.2-27.5
	c0-15.2,13.1-27.5,29.2-27.5c16.1,0,29.2,12.3,29.2,27.5C375.5,258.3,362.4,270.6,346.3,270.6z"/>
</svg>
