<?xml version="1.0" encoding="utf-8"?>
<!-- Generator: Adobe Illustrator 22.0.0, SVG Export Plug-In . SVG Version: 6.00 Build 0)  -->
<svg version="1.1" id="Layer_1" xmlns="http://www.w3.org/2000/svg" xmlns:xlink="http://www.w3.org/1999/xlink" x="0px" y="0px"
	 viewBox="0 0 455 455" style="enable-background:new 0 0 455 455;" xml:space="preserve">
<style type="text/css">
	.st0{fill:#00B4FF;}
</style>
<path d="M433,412.4H49.4c-11.8,0-21.3,9.5-21.3,21.3c0,11.8,9.5,21.3,21.3,21.3H433c11.8,0,21.3-9.5,21.3-21.3
	C454.3,421.9,444.8,412.4,433,412.4z"/>
<path d="M181.1,391c16,0,32.1-6.1,44.3-18.3l160.9-160.9c8.3-8.3,8.3-21.8,0-30.1L210.8,6.3c-8.3-8.3-21.8-8.3-30.1,0L19.7,167.1
	c-24.4,24.4-24.4,64.2,0,88.6l117,117C149,384.9,165,391,181.1,391z M195.7,51.4L341,196.8l-2.5,2.5h-290c0.5-0.6,0.7-1.4,1.3-2
	L195.7,51.4z"/>
<path class="st0" d="M347.7,336c0,30.4,23.9,55.1,53.3,55.1c29.4,0,53.3-24.7,53.3-55.1c0-24.5-30.6-72.7-39.9-86.9
	c-5.9-9-20.8-9-26.7,0C378.3,263.3,347.7,311.5,347.7,336z"/>
</svg>
